<svg xmlns="http://www.w3.org/2000/svg" xmlns:xlink="http://www.w3.org/1999/xlink" viewBox="0 0 474 289"><defs><style>.cls-1,.cls-7{fill:#fff;}.cls-2{fill:#626c87;}.cls-3,.cls-6,.cls-8{fill:none;}.cls-3,.cls-7,.cls-8{stroke:#626c87;}.cls-3{stroke-linecap:round;stroke-linejoin:round;}.cls-3,.cls-5,.cls-6,.cls-7,.cls-8{stroke-width:1.5px;}.cls-4{fill:#646e85;}.cls-5,.cls-6,.cls-7,.cls-8{stroke-miterlimit:10;}.cls-5{fill:url(#Namnlös_övertoning_151);stroke:url(#Namnlös_övertoning_286);}.cls-6{stroke:#d859a1;}</style><linearGradient id="Namnlös_övertoning_151" x1="205.75" y1="102.28" x2="267.7" y2="102.28" gradientUnits="userSpaceOnUse"><stop offset="0" stop-color="#d859a1" stop-opacity="0.6"/><stop offset="0.01" stop-color="#d95ca3" stop-opacity="0.59"/><stop offset="0.14" stop-color="#e48ebf" stop-opacity="0.41"/><stop offset="0.28" stop-color="#eeb7d6" stop-opacity="0.26"/><stop offset="0.42" stop-color="#f6d7e8" stop-opacity="0.15"/><stop offset="0.56" stop-color="#fbedf5" stop-opacity="0.06"/><stop offset="0.72" stop-color="#fefbfd" stop-opacity="0.02"/><stop offset="0.91" stop-color="#fff" stop-opacity="0"/></linearGradient><linearGradient id="Namnlös_övertoning_286" x1="205" y1="102.28" x2="267.7" y2="102.28" gradientUnits="userSpaceOnUse"><stop offset="0" stop-color="#d859a1"/><stop offset="0.25" stop-color="#d85ba2" stop-opacity="0.99"/><stop offset="0.38" stop-color="#da61a5" stop-opacity="0.95"/><stop offset="0.49" stop-color="#dc6bab" stop-opacity="0.89"/><stop offset="0.57" stop-color="#e07ab3" stop-opacity="0.8"/><stop offset="0.65" stop-color="#e48dbe" stop-opacity="0.69"/><stop offset="0.72" stop-color="#eaa4cb" stop-opacity="0.55"/><stop offset="0.79" stop-color="#f0c0db" stop-opacity="0.38"/><stop offset="0.85" stop-color="#f8dfed" stop-opacity="0.19"/><stop offset="0.91" stop-color="#fff" stop-opacity="0"/></linearGradient></defs><g id="Layer_2" data-name="Layer 2"><rect class="cls-1" width="474" height="289"/><path class="cls-2" d="M196.23,27.5v4.73h-1.59V20.14h4.46a4.47,4.47,0,0,1,3.1,1,3.45,3.45,0,0,1,1.13,2.69,3.41,3.41,0,0,1-1.1,2.71,4.69,4.69,0,0,1-3.15.95Zm0-1.31h2.87a2.84,2.84,0,0,0,2-.6,2.18,2.18,0,0,0,.69-1.74,2.26,2.26,0,0,0-.69-1.73,2.69,2.69,0,0,0-1.86-.68h-3Z"/><path class="cls-2" d="M210.58,32.23a3.31,3.31,0,0,1-.22-.95,3.43,3.43,0,0,1-2.56,1.11,3.15,3.15,0,0,1-2.17-.75,2.42,2.42,0,0,1-.86-1.9,2.54,2.54,0,0,1,1.07-2.18,5,5,0,0,1,3-.78h1.49v-.7a1.74,1.74,0,0,0-.48-1.29,2,2,0,0,0-1.42-.47,2.27,2.27,0,0,0-1.37.41,1.23,1.23,0,0,0-.56,1H205a2.16,2.16,0,0,1,.47-1.3,3.2,3.2,0,0,1,1.3-1,4.23,4.23,0,0,1,1.8-.37,3.55,3.55,0,0,1,2.43.78,2.8,2.8,0,0,1,.91,2.13v4.14a5.09,5.09,0,0,0,.32,2v.13ZM208,31.06a2.72,2.72,0,0,0,1.37-.38,2.17,2.17,0,0,0,.93-1V27.87h-1.2q-2.82,0-2.82,1.65a1.4,1.4,0,0,0,.48,1.13A1.85,1.85,0,0,0,208,31.06Z"/><path class="cls-2" d="M219.51,29.85a1.14,1.14,0,0,0-.47-1,4.56,4.56,0,0,0-1.64-.6,7.76,7.76,0,0,1-1.85-.59,2.77,2.77,0,0,1-1-.83,2,2,0,0,1-.33-1.15,2.35,2.35,0,0,1,.93-1.87,4.21,4.21,0,0,1,4.87,0,2.53,2.53,0,0,1,1,2h-1.54a1.38,1.38,0,0,0-.54-1.09,2,2,0,0,0-1.35-.46,2.06,2.06,0,0,0-1.31.37,1.13,1.13,0,0,0-.47.95.92.92,0,0,0,.44.84,5.24,5.24,0,0,0,1.59.54,8.8,8.8,0,0,1,1.86.61,2.76,2.76,0,0,1,1.06.86,2.14,2.14,0,0,1,.34,1.23,2.31,2.31,0,0,1-1,1.93,4.05,4.05,0,0,1-2.5.72,4.46,4.46,0,0,1-1.91-.38,3.18,3.18,0,0,1-1.3-1.06,2.6,2.6,0,0,1-.47-1.49h1.54a1.58,1.58,0,0,0,.62,1.23,2.39,2.39,0,0,0,1.52.45,2.52,2.52,0,0,0,1.4-.35A1.1,1.1,0,0,0,219.51,29.85Z"/><path class="cls-2" d="M228.27,29.85a1.11,1.11,0,0,0-.47-1,4.49,4.49,0,0,0-1.63-.6,7.46,7.46,0,0,1-1.85-.59,2.72,2.72,0,0,1-1-.83,2.07,2.07,0,0,1-.32-1.15,2.35,2.35,0,0,1,.93-1.87,3.7,3.7,0,0,1,2.39-.76,3.75,3.75,0,0,1,2.48.79,2.53,2.53,0,0,1,.95,2h-1.55a1.4,1.4,0,0,0-.53-1.09,2,2,0,0,0-1.35-.46,2,2,0,0,0-1.31.37,1.14,1.14,0,0,0-.48.95.94.94,0,0,0,.44.84,5.46,5.46,0,0,0,1.59.54,8.72,8.72,0,0,1,1.87.61,2.8,2.8,0,0,1,1.05.86,2.15,2.15,0,0,1,.35,1.23,2.31,2.31,0,0,1-1,1.93,4.09,4.09,0,0,1-2.5.72,4.43,4.43,0,0,1-1.91-.38,3.05,3.05,0,0,1-1.3-1.06,2.6,2.6,0,0,1-.47-1.49h1.54a1.57,1.57,0,0,0,.61,1.23,2.44,2.44,0,0,0,1.53.45,2.55,2.55,0,0,0,1.4-.35A1.09,1.09,0,0,0,228.27,29.85Z"/><path class="cls-2" d="M239.76,30.11l1.73-6.86H243l-2.61,9h-1.25L237,25.42l-2.12,6.81h-1.25l-2.61-9h1.53L234.3,30l2.09-6.72h1.24Z"/><path class="cls-2" d="M244.18,27.65a5.22,5.22,0,0,1,.52-2.37,3.82,3.82,0,0,1,1.44-1.63,4,4,0,0,1,2.11-.57,3.78,3.78,0,0,1,3,1.27,4.86,4.86,0,0,1,1.13,3.38v.11a5.26,5.26,0,0,1-.5,2.35,3.76,3.76,0,0,1-1.43,1.62,4,4,0,0,1-2.15.58,3.77,3.77,0,0,1-3-1.27,4.81,4.81,0,0,1-1.13-3.36Zm1.54.19a3.88,3.88,0,0,0,.69,2.4,2.36,2.36,0,0,0,3.72,0,4.18,4.18,0,0,0,.69-2.57,3.88,3.88,0,0,0-.7-2.39,2.24,2.24,0,0,0-1.87-.92,2.18,2.18,0,0,0-1.83.91A4.12,4.12,0,0,0,245.72,27.84Z"/><path class="cls-2" d="M258.62,24.62a5.78,5.78,0,0,0-.75-.05,2,2,0,0,0-2.06,1.28v6.38h-1.53v-9h1.49l0,1a2.39,2.39,0,0,1,2.14-1.2,1.5,1.5,0,0,1,.68.12Z"/><path class="cls-2" d="M259.5,27.66a5.27,5.27,0,0,1,1-3.32,3.33,3.33,0,0,1,5.06-.18V19.48h1.54V32.23h-1.41l-.08-1A3.12,3.12,0,0,1,263,32.39a3.08,3.08,0,0,1-2.55-1.27,5.39,5.39,0,0,1-1-3.34Zm1.54.18a4,4,0,0,0,.63,2.39,2,2,0,0,0,1.74.86,2.25,2.25,0,0,0,2.13-1.31V25.65a2.26,2.26,0,0,0-2.11-1.27,2,2,0,0,0-1.76.88A4.38,4.38,0,0,0,261,27.84Z"/><path class="cls-2" d="M274.69,29.85a1.11,1.11,0,0,0-.47-1,4.57,4.57,0,0,0-1.63-.6,7.46,7.46,0,0,1-1.85-.59,2.72,2.72,0,0,1-1-.83,2,2,0,0,1-.32-1.15,2.35,2.35,0,0,1,.93-1.87,4.2,4.2,0,0,1,4.86,0,2.5,2.5,0,0,1,.95,2H274.6a1.38,1.38,0,0,0-.54-1.09,2,2,0,0,0-1.34-.46,2.09,2.09,0,0,0-1.32.37,1.15,1.15,0,0,0-.47.95.94.94,0,0,0,.44.84A5.24,5.24,0,0,0,273,27a8.43,8.43,0,0,1,1.86.61,2.76,2.76,0,0,1,1.06.86,2.15,2.15,0,0,1,.35,1.23,2.3,2.3,0,0,1-1,1.93,4,4,0,0,1-2.49.72,4.43,4.43,0,0,1-1.91-.38,3.05,3.05,0,0,1-1.3-1.06,2.6,2.6,0,0,1-.47-1.49h1.53a1.61,1.61,0,0,0,.62,1.23,2.42,2.42,0,0,0,1.53.45,2.49,2.49,0,0,0,1.39-.35A1.07,1.07,0,0,0,274.69,29.85Z"/><path class="cls-3" d="M183.4,126.11l-48.74,48.75a19.65,19.65,0,0,1-13.89,5.75H73.23"/><path class="cls-4" d="M76.58,180.52a4.13,4.13,0,1,0-4.13,4.12A4.13,4.13,0,0,0,76.58,180.52Z"/><path class="cls-3" d="M298.83,126.11l48.74,48.75a19.67,19.67,0,0,0,13.89,5.75H409"/><path class="cls-4" d="M405.66,180.52a4.13,4.13,0,1,1,4.12,4.12A4.12,4.12,0,0,1,405.66,180.52Z"/><path class="cls-2" d="M31.78,197.09a6.08,6.08,0,0,1-.49,2.55,3.78,3.78,0,0,1-1.39,1.67,3.9,3.9,0,0,1-2.11.57,3.74,3.74,0,0,1-2.08-.58,3.81,3.81,0,0,1-1.42-1.64,6,6,0,0,1-.51-2.48v-.72a6.16,6.16,0,0,1,.5-2.54,3.68,3.68,0,0,1,3.5-2.26,3.92,3.92,0,0,1,2.11.57,3.83,3.83,0,0,1,1.4,1.68,6.14,6.14,0,0,1,.49,2.55Zm-1.3-.64a4.5,4.5,0,0,0-.71-2.72,2.36,2.36,0,0,0-2-.95,2.32,2.32,0,0,0-2,.95,4.39,4.39,0,0,0-.74,2.63v.73a4.51,4.51,0,0,0,.72,2.7,2.36,2.36,0,0,0,2,1,2.32,2.32,0,0,0,2-.93,4.52,4.52,0,0,0,.72-2.65Z"/><path class="cls-2" d="M34.75,194.35l0,.93A2.71,2.71,0,0,1,37,194.21c1.56,0,2.35.88,2.36,2.65v4.89H38.11v-4.9a1.72,1.72,0,0,0-.37-1.18,1.45,1.45,0,0,0-1.12-.38,1.81,1.81,0,0,0-1.08.32,2.23,2.23,0,0,0-.72.86v5.28H33.55v-7.4Z"/><path class="cls-2" d="M49.31,201.75a3,3,0,0,1-.18-.78,2.82,2.82,0,0,1-2.1.91,2.59,2.59,0,0,1-1.8-.62,2,2,0,0,1-.7-1.57,2.1,2.1,0,0,1,.88-1.79,4.12,4.12,0,0,1,2.47-.64h1.23v-.58a1.46,1.46,0,0,0-.39-1.06,1.62,1.62,0,0,0-1.17-.39,1.86,1.86,0,0,0-1.14.34,1,1,0,0,0-.46.83H44.68a1.7,1.7,0,0,1,.4-1.07,2.68,2.68,0,0,1,1.06-.82,3.59,3.59,0,0,1,1.48-.3,2.94,2.94,0,0,1,2,.64,2.32,2.32,0,0,1,.75,1.76V200a4.1,4.1,0,0,0,.26,1.62v.11Zm-2.1-1a2.19,2.19,0,0,0,1.13-.31,1.8,1.8,0,0,0,.77-.8v-1.51h-1c-1.55,0-2.32.45-2.32,1.36a1.18,1.18,0,0,0,.39.93A1.56,1.56,0,0,0,47.21,200.78Z"/><path class="cls-2" d="M54.7,200l1.83-5.68h1.29l-2.65,7.4h-1l-2.68-7.4h1.29Z"/><path class="cls-2" d="M61.74,201.88a3.22,3.22,0,0,1-2.44-1,3.65,3.65,0,0,1-.95-2.64V198a4.48,4.48,0,0,1,.42-2A3.37,3.37,0,0,1,60,194.7a3,3,0,0,1,1.64-.49,2.79,2.79,0,0,1,2.24.95,4.14,4.14,0,0,1,.8,2.72v.53h-5a2.64,2.64,0,0,0,.64,1.77,2,2,0,0,0,1.55.67,2.24,2.24,0,0,0,1.14-.27,3,3,0,0,0,.81-.73l.77.6A3.09,3.09,0,0,1,61.74,201.88Zm-.15-6.63a1.71,1.71,0,0,0-1.29.56,2.72,2.72,0,0,0-.64,1.56h3.7v-.1a2.36,2.36,0,0,0-.52-1.49A1.58,1.58,0,0,0,61.59,195.25Z"/><path class="cls-2" d="M69.67,195.48a4.17,4.17,0,0,0-.63,0,1.65,1.65,0,0,0-1.68,1.06v5.25H66.09v-7.4h1.23l0,.85a2,2,0,0,1,1.77-1,1.22,1.22,0,0,1,.56.1Z"/><path class="cls-2" d="M75.12,201.75a3,3,0,0,1-.18-.78,2.8,2.8,0,0,1-2.1.91,2.59,2.59,0,0,1-1.8-.62,2,2,0,0,1-.7-1.57,2.1,2.1,0,0,1,.88-1.79,4.12,4.12,0,0,1,2.47-.64h1.23v-.58a1.46,1.46,0,0,0-.39-1.06,1.62,1.62,0,0,0-1.17-.39,1.86,1.86,0,0,0-1.14.34,1,1,0,0,0-.45.83H70.49a1.76,1.76,0,0,1,.4-1.07,2.68,2.68,0,0,1,1.06-.82,3.63,3.63,0,0,1,1.48-.3,2.92,2.92,0,0,1,2,.64,2.32,2.32,0,0,1,.75,1.76V200a4.1,4.1,0,0,0,.26,1.62v.11Zm-2.1-1a2.19,2.19,0,0,0,1.13-.31,1.8,1.8,0,0,0,.77-.8v-1.51h-1c-1.55,0-2.32.45-2.32,1.36a1.18,1.18,0,0,0,.39.93A1.56,1.56,0,0,0,73,200.78Z"/><path class="cls-2" d="M77.87,198a4.4,4.4,0,0,1,.8-2.76,2.75,2.75,0,0,1,4.23-.06l.06-.82h1.16v7.22a3,3,0,0,1-.85,2.26,3.16,3.16,0,0,1-2.29.83,4,4,0,0,1-1.57-.34,2.62,2.62,0,0,1-1.16-.94l.65-.76a2.47,2.47,0,0,0,2,1,2,2,0,0,0,1.44-.51,2,2,0,0,0,.52-1.47V201a2.62,2.62,0,0,1-2.07.87,2.56,2.56,0,0,1-2.11-1A4.62,4.62,0,0,1,77.87,198Zm1.27.14a3.31,3.31,0,0,0,.51,2,1.67,1.67,0,0,0,1.44.72,1.85,1.85,0,0,0,1.76-1.09v-3.38a1.88,1.88,0,0,0-1.75-1.05,1.68,1.68,0,0,0-1.44.71A3.6,3.6,0,0,0,79.14,198.13Z"/><path class="cls-2" d="M89.09,201.88a3.22,3.22,0,0,1-2.44-1,3.65,3.65,0,0,1-1-2.64V198a4.48,4.48,0,0,1,.42-2,3.37,3.37,0,0,1,1.18-1.35,3,3,0,0,1,1.64-.49,2.77,2.77,0,0,1,2.24.95,4.14,4.14,0,0,1,.8,2.72v.53H87a2.64,2.64,0,0,0,.64,1.77,2,2,0,0,0,1.55.67,2.24,2.24,0,0,0,1.14-.27,3,3,0,0,0,.81-.73l.77.6A3.09,3.09,0,0,1,89.09,201.88Zm-.15-6.63a1.71,1.71,0,0,0-1.29.56,2.72,2.72,0,0,0-.64,1.56h3.7v-.1a2.41,2.41,0,0,0-.51-1.49A1.62,1.62,0,0,0,88.94,195.25Z"/><path class="cls-2" d="M93.4,203.73l-.72-.49a3.33,3.33,0,0,0,.67-1.85v-1.14h1.24v1a3.05,3.05,0,0,1-.34,1.38A3.22,3.22,0,0,1,93.4,203.73Z"/><path class="cls-2" d="M104.22,201a2.68,2.68,0,0,1-2.17.87,2.31,2.31,0,0,1-1.8-.69,2.93,2.93,0,0,1-.62-2v-4.81h1.26v4.78c0,1.12.46,1.68,1.37,1.68a1.89,1.89,0,0,0,1.93-1.08v-5.38h1.26v7.4h-1.2Z"/><path class="cls-2" d="M111.68,199.78a.92.92,0,0,0-.39-.79,3.49,3.49,0,0,0-1.34-.49,6.72,6.72,0,0,1-1.53-.49,2.24,2.24,0,0,1-.83-.69,1.62,1.62,0,0,1-.27-.94,1.93,1.93,0,0,1,.77-1.54,3,3,0,0,1,2-.63,3.1,3.1,0,0,1,2,.65,2,2,0,0,1,.79,1.66h-1.27a1.13,1.13,0,0,0-.45-.89,1.64,1.64,0,0,0-1.11-.38,1.73,1.73,0,0,0-1.08.3.94.94,0,0,0-.39.79.77.77,0,0,0,.37.69,4.51,4.51,0,0,0,1.3.44,6.43,6.43,0,0,1,1.54.51,2.17,2.17,0,0,1,.87.71,1.71,1.71,0,0,1,.29,1,1.89,1.89,0,0,1-.8,1.59,3.32,3.32,0,0,1-2.06.6,3.73,3.73,0,0,1-1.57-.31,2.59,2.59,0,0,1-1.07-.88,2.17,2.17,0,0,1-.38-1.22h1.26a1.3,1.3,0,0,0,.51,1,2,2,0,0,0,1.25.37,2.1,2.1,0,0,0,1.16-.29A.88.88,0,0,0,111.68,199.78Z"/><path class="cls-2" d="M117.66,201.88a3.24,3.24,0,0,1-2.45-1,3.69,3.69,0,0,1-.94-2.64V198a4.48,4.48,0,0,1,.42-2,3.3,3.3,0,0,1,1.18-1.35,3,3,0,0,1,1.63-.49,2.79,2.79,0,0,1,2.25.95,4.14,4.14,0,0,1,.8,2.72v.53h-5a2.63,2.63,0,0,0,.63,1.77,2,2,0,0,0,1.56.67,2.26,2.26,0,0,0,1.14-.27,3.11,3.11,0,0,0,.81-.73l.77.6A3.09,3.09,0,0,1,117.66,201.88Zm-.16-6.63a1.69,1.69,0,0,0-1.28.56,2.66,2.66,0,0,0-.64,1.56h3.7v-.1a2.36,2.36,0,0,0-.52-1.49A1.6,1.6,0,0,0,117.5,195.25Z"/><path class="cls-2" d="M125.58,195.48a4,4,0,0,0-.62,0,1.67,1.67,0,0,0-1.69,1.06v5.25H122v-7.4h1.23l0,.85a2,2,0,0,1,1.76-1,1.17,1.17,0,0,1,.56.1Z"/><path class="cls-2" d="M131.05,199.78a.94.94,0,0,0-.38-.79,3.62,3.62,0,0,0-1.35-.49,6.46,6.46,0,0,1-1.52-.49,2.2,2.2,0,0,1-.84-.69,1.62,1.62,0,0,1-.27-.94,1.93,1.93,0,0,1,.77-1.54,3,3,0,0,1,2-.63,3.12,3.12,0,0,1,2,.65,2.07,2.07,0,0,1,.78,1.66H131a1.15,1.15,0,0,0-.44-.89,1.68,1.68,0,0,0-1.11-.38,1.73,1.73,0,0,0-1.08.3.94.94,0,0,0-.39.79.78.78,0,0,0,.36.69,4.6,4.6,0,0,0,1.31.44,6.49,6.49,0,0,1,1.53.51,2.1,2.1,0,0,1,.87.71,1.71,1.71,0,0,1,.29,1,1.9,1.9,0,0,1-.79,1.59,3.34,3.34,0,0,1-2.06.6,3.78,3.78,0,0,1-1.58-.31,2.49,2.49,0,0,1-1.06-.88,2.11,2.11,0,0,1-.39-1.22h1.26a1.37,1.37,0,0,0,.51,1,2,2,0,0,0,1.26.37,2.06,2.06,0,0,0,1.15-.29A.88.88,0,0,0,131.05,199.78Z"/><path class="cls-2" d="M35.28,211.15l0,.82a2.72,2.72,0,0,1,2.19-1,2.13,2.13,0,0,1,2.12,1.19,2.76,2.76,0,0,1,1-.86A2.8,2.8,0,0,1,42,211c1.63,0,2.45.86,2.48,2.58v4.95H43.18v-4.88a1.7,1.7,0,0,0-.36-1.18,1.6,1.6,0,0,0-1.21-.4,1.64,1.64,0,0,0-1.17.43,1.69,1.69,0,0,0-.54,1.13v4.9H38.63V213.7A1.42,1.42,0,0,0,37,212.08a1.71,1.71,0,0,0-1.7,1.06v5.4H34.08v-7.39Z"/><path class="cls-2" d="M50.92,218.54a2.79,2.79,0,0,1-.18-.77,2.79,2.79,0,0,1-2.1.91,2.59,2.59,0,0,1-1.8-.62,2,2,0,0,1-.7-1.57A2.1,2.1,0,0,1,47,214.7a4.12,4.12,0,0,1,2.47-.64h1.23v-.58a1.46,1.46,0,0,0-.39-1.06,1.62,1.62,0,0,0-1.17-.39,1.86,1.86,0,0,0-1.14.34,1,1,0,0,0-.45.83H46.29a1.76,1.76,0,0,1,.4-1.07,2.68,2.68,0,0,1,1.06-.82,3.63,3.63,0,0,1,1.48-.3,2.92,2.92,0,0,1,2,.64,2.32,2.32,0,0,1,.75,1.76v3.41a4.29,4.29,0,0,0,.26,1.62v.1Zm-2.1-1a2.16,2.16,0,0,0,1.13-.31,1.8,1.8,0,0,0,.77-.8V215h-1c-1.55,0-2.32.45-2.32,1.36a1.18,1.18,0,0,0,.39.93A1.56,1.56,0,0,0,48.82,217.58Z"/><path class="cls-2" d="M55.17,211.15l0,.93A2.69,2.69,0,0,1,57.42,211c1.57,0,2.36.88,2.37,2.65v4.88H58.52v-4.89a1.67,1.67,0,0,0-.36-1.18,1.45,1.45,0,0,0-1.12-.39,1.82,1.82,0,0,0-1.08.33,2.23,2.23,0,0,0-.72.86v5.27H54v-7.39Z"/><path class="cls-2" d="M66.26,218.54a2.79,2.79,0,0,1-.18-.77,2.8,2.8,0,0,1-2.1.91,2.59,2.59,0,0,1-1.8-.62,2,2,0,0,1-.7-1.57,2.1,2.1,0,0,1,.88-1.79,4.12,4.12,0,0,1,2.47-.64h1.23v-.58a1.46,1.46,0,0,0-.39-1.06A1.62,1.62,0,0,0,64.5,212a1.86,1.86,0,0,0-1.14.34,1,1,0,0,0-.45.83H61.63a1.76,1.76,0,0,1,.4-1.07,2.68,2.68,0,0,1,1.06-.82,3.63,3.63,0,0,1,1.48-.3,2.92,2.92,0,0,1,2,.64,2.32,2.32,0,0,1,.75,1.76v3.41a4.29,4.29,0,0,0,.26,1.62v.1Zm-2.1-1a2.16,2.16,0,0,0,1.13-.31,1.8,1.8,0,0,0,.77-.8V215h-1c-1.55,0-2.32.45-2.32,1.36a1.18,1.18,0,0,0,.39.93A1.56,1.56,0,0,0,64.16,217.58Z"/><path class="cls-2" d="M69,214.79a4.38,4.38,0,0,1,.8-2.76A2.75,2.75,0,0,1,74,212l.06-.82h1.16v7.22a3,3,0,0,1-.85,2.26,3.16,3.16,0,0,1-2.29.83,4,4,0,0,1-1.57-.34,2.67,2.67,0,0,1-1.16-.94l.65-.76a2.47,2.47,0,0,0,2,1,2,2,0,0,0,1.44-.51,2,2,0,0,0,.52-1.47v-.63a2.62,2.62,0,0,1-2.07.87,2.56,2.56,0,0,1-2.11-1A4.62,4.62,0,0,1,69,214.79Zm1.27.14a3.31,3.31,0,0,0,.51,2,1.69,1.69,0,0,0,1.44.72A1.85,1.85,0,0,0,74,216.52v-3.38a1.89,1.89,0,0,0-1.75-1.06,1.69,1.69,0,0,0-1.44.72A3.67,3.67,0,0,0,70.28,214.93Z"/><path class="cls-2" d="M80.23,218.68a3.22,3.22,0,0,1-2.44-1,3.65,3.65,0,0,1-1-2.64v-.23a4.48,4.48,0,0,1,.42-2,3.37,3.37,0,0,1,1.18-1.35,2.92,2.92,0,0,1,1.64-.49,2.77,2.77,0,0,1,2.24,1,4.14,4.14,0,0,1,.8,2.72v.53h-5a2.64,2.64,0,0,0,.64,1.77,2,2,0,0,0,1.55.67,2.24,2.24,0,0,0,1.14-.27,3,3,0,0,0,.81-.73l.77.6A3.09,3.09,0,0,1,80.23,218.68Zm-.15-6.63a1.71,1.71,0,0,0-1.29.56,2.72,2.72,0,0,0-.64,1.56h3.71v-.1a2.42,2.42,0,0,0-.52-1.49A1.6,1.6,0,0,0,80.08,212.05Z"/><path class="cls-2" d="M87.71,214.78a4.44,4.44,0,0,1,.43-2,3.24,3.24,0,0,1,1.19-1.34,3.29,3.29,0,0,1,1.74-.47,3.1,3.1,0,0,1,2.44,1.05,4,4,0,0,1,.94,2.78v.09a4.38,4.38,0,0,1-.42,1.94,3.11,3.11,0,0,1-1.18,1.33,3.26,3.26,0,0,1-1.77.48,3.12,3.12,0,0,1-2.43-1,4,4,0,0,1-.94-2.77Zm1.27.15a3.14,3.14,0,0,0,.58,2,1.93,1.93,0,0,0,3.06,0,3.48,3.48,0,0,0,.56-2.11,3.12,3.12,0,0,0-.58-2,1.91,1.91,0,0,0-3,0A3.42,3.42,0,0,0,89,214.93Z"/><path class="cls-2" d="M98.37,216.83l1.83-5.68h1.29l-2.65,7.39h-1l-2.68-7.39h1.29Z"/><path class="cls-2" d="M105.69,218.68a3.24,3.24,0,0,1-2.45-1,3.69,3.69,0,0,1-.94-2.64v-.23a4.48,4.48,0,0,1,.42-2,3.3,3.3,0,0,1,1.18-1.35,2.92,2.92,0,0,1,1.64-.49,2.79,2.79,0,0,1,2.24,1,4.14,4.14,0,0,1,.8,2.72v.53h-5a2.59,2.59,0,0,0,.64,1.77,2,2,0,0,0,1.55.67,2.2,2.2,0,0,0,1.13-.27,2.86,2.86,0,0,0,.82-.73l.77.6A3.09,3.09,0,0,1,105.69,218.68Zm-.15-6.63a1.7,1.7,0,0,0-1.29.56,2.66,2.66,0,0,0-.64,1.56h3.7v-.1a2.36,2.36,0,0,0-.52-1.49A1.59,1.59,0,0,0,105.54,212.05Z"/><path class="cls-2" d="M113.62,212.28a4.17,4.17,0,0,0-.63,0,1.67,1.67,0,0,0-1.69,1v5.25H110v-7.39h1.23l0,.85a2,2,0,0,1,1.76-1,1.24,1.24,0,0,1,.57.1Z"/><path class="cls-2" d="M123.45,215.2h1.38v1h-1.38v2.31h-1.27v-2.31h-4.53v-.74l4.46-6.9h1.34Zm-4.37,0h3.1v-4.88l-.15.27Z"/><path class="cls-2" d="M132.21,214.3a5.83,5.83,0,0,1-.75,3.3,3.15,3.15,0,0,1-4.73,0,5.48,5.48,0,0,1-.8-3.15v-1.69a5.7,5.7,0,0,1,.76-3.26,2.72,2.72,0,0,1,2.38-1.06,2.77,2.77,0,0,1,2.37,1,5.51,5.51,0,0,1,.77,3.18ZM131,212.57a4.64,4.64,0,0,0-.45-2.34,1.56,1.56,0,0,0-1.43-.74,1.52,1.52,0,0,0-1.41.74,4.44,4.44,0,0,0-.46,2.24v2a4.62,4.62,0,0,0,.47,2.38,1.69,1.69,0,0,0,2.81,0,4.51,4.51,0,0,0,.47-2.28Z"/><path class="cls-2" d="M17,231.58a4.36,4.36,0,0,1,.8-2.73A2.74,2.74,0,0,1,22,228.7v-3.86h1.27v10.5H22.07l-.06-.79a2.59,2.59,0,0,1-2.12.93,2.53,2.53,0,0,1-2.09-1,4.39,4.39,0,0,1-.81-2.75Zm1.26.15a3.34,3.34,0,0,0,.52,2,1.7,1.7,0,0,0,1.44.71A1.83,1.83,0,0,0,22,233.33v-3.4a1.84,1.84,0,0,0-1.74-1.05,1.69,1.69,0,0,0-1.45.72A3.67,3.67,0,0,0,18.25,231.73Z"/><path class="cls-2" d="M25.2,226a.73.73,0,0,1,.19-.52.7.7,0,0,1,.55-.22.71.71,0,0,1,.56.22.76.76,0,0,1,0,1,.7.7,0,0,1-.56.2.69.69,0,0,1-.55-.2A.72.72,0,0,1,25.2,226Zm1.37,9.35H25.3V228h1.27Z"/><path class="cls-2" d="M29.21,235.34v-6.41H28v-1h1.17v-.76a2.5,2.5,0,0,1,.64-1.84,2.4,2.4,0,0,1,1.79-.65,3.15,3.15,0,0,1,.87.12l-.07,1a3,3,0,0,0-.68-.07,1.23,1.23,0,0,0-1,.36,1.49,1.49,0,0,0-.33,1V228h1.57v1H30.48v6.41Z"/><path class="cls-2" d="M34.07,235.34v-6.41H32.9v-1h1.17v-.76a2.5,2.5,0,0,1,.64-1.84,2.4,2.4,0,0,1,1.79-.65,3.15,3.15,0,0,1,.87.12l-.07,1a3,3,0,0,0-.68-.07,1.23,1.23,0,0,0-.95.36,1.49,1.49,0,0,0-.33,1V228h1.58v1H35.34v6.41Z"/><path class="cls-2" d="M41.21,235.48a3.22,3.22,0,0,1-2.44-1,3.67,3.67,0,0,1-1-2.64v-.23a4.48,4.48,0,0,1,.42-2,3.45,3.45,0,0,1,1.18-1.35,2.92,2.92,0,0,1,1.64-.49,2.77,2.77,0,0,1,2.24.95,4.14,4.14,0,0,1,.8,2.72V232h-5a2.64,2.64,0,0,0,.64,1.77,2,2,0,0,0,1.55.67,2.24,2.24,0,0,0,1.14-.27,3,3,0,0,0,.81-.73l.77.6A3.1,3.1,0,0,1,41.21,235.48Zm-.15-6.63a1.71,1.71,0,0,0-1.29.56,2.72,2.72,0,0,0-.64,1.56h3.7v-.1a2.35,2.35,0,0,0-.51-1.49A1.6,1.6,0,0,0,41.06,228.85Z"/><path class="cls-2" d="M49.14,229.08a4,4,0,0,0-.62,0,1.66,1.66,0,0,0-1.69,1.05v5.25H45.56V228h1.23l0,.85a2,2,0,0,1,1.77-1,1.22,1.22,0,0,1,.56.1Z"/><path class="cls-2" d="M53.24,235.48a3.24,3.24,0,0,1-2.45-1,3.66,3.66,0,0,1-.94-2.64v-.23a4.48,4.48,0,0,1,.42-2,3.3,3.3,0,0,1,1.18-1.35,2.89,2.89,0,0,1,1.63-.49,2.77,2.77,0,0,1,2.24.95,4.09,4.09,0,0,1,.8,2.72V232h-5a2.64,2.64,0,0,0,.64,1.77,2,2,0,0,0,1.56.67,2.22,2.22,0,0,0,1.13-.27,3.15,3.15,0,0,0,.82-.73l.77.6A3.11,3.11,0,0,1,53.24,235.48Zm-.16-6.63a1.67,1.67,0,0,0-1.28.56,2.73,2.73,0,0,0-.65,1.56h3.71v-.1a2.42,2.42,0,0,0-.52-1.49A1.6,1.6,0,0,0,53.08,228.85Z"/><path class="cls-2" d="M58.78,228l0,.93A2.72,2.72,0,0,1,61,227.81c1.56,0,2.35.88,2.36,2.65v4.88H62.14v-4.89a1.72,1.72,0,0,0-.37-1.18,1.43,1.43,0,0,0-1.11-.39,1.82,1.82,0,0,0-1.08.33,2.35,2.35,0,0,0-.73.86v5.27H57.59V228Z"/><path class="cls-2" d="M67,226.16V228h1.38v1H67v4.59a1.05,1.05,0,0,0,.18.67.8.8,0,0,0,.63.22,3.31,3.31,0,0,0,.6-.08v1a3.65,3.65,0,0,1-1,.13,1.59,1.59,0,0,1-1.28-.51,2.25,2.25,0,0,1-.43-1.46v-4.58H64.42v-1h1.34v-1.79Z"/><path class="cls-2" d="M77.92,235.34a2.46,2.46,0,0,1-.18-.77,2.82,2.82,0,0,1-2.11.91,2.57,2.57,0,0,1-1.79-.62,2,2,0,0,1-.7-1.57A2.08,2.08,0,0,1,74,231.5a4.1,4.1,0,0,1,2.47-.64h1.23v-.58a1.42,1.42,0,0,0-.4-1.06,1.59,1.59,0,0,0-1.17-.39,1.81,1.81,0,0,0-1.13.34,1,1,0,0,0-.46.83H73.29a1.74,1.74,0,0,1,.39-1.07,2.62,2.62,0,0,1,1.07-.82,3.59,3.59,0,0,1,1.48-.3,2.9,2.9,0,0,1,2,.64,2.32,2.32,0,0,1,.75,1.76v3.41a4.29,4.29,0,0,0,.26,1.62v.1Zm-2.1-1a2.21,2.21,0,0,0,1.13-.31,1.85,1.85,0,0,0,.77-.8v-1.51h-1c-1.55,0-2.33.45-2.33,1.36a1.19,1.19,0,0,0,.4.93A1.53,1.53,0,0,0,75.82,234.38Z"/><path class="cls-2" d="M83.93,234.45a1.87,1.87,0,0,0,1.19-.41,1.48,1.48,0,0,0,.56-1h1.19a2.24,2.24,0,0,1-.44,1.21,2.75,2.75,0,0,1-1.07.92,3.1,3.1,0,0,1-1.43.34,3,3,0,0,1-2.4-1,4,4,0,0,1-.89-2.76v-.21a4.51,4.51,0,0,1,.39-1.92,3.08,3.08,0,0,1,1.14-1.3,3.26,3.26,0,0,1,1.76-.47,2.94,2.94,0,0,1,2.06.75,2.62,2.62,0,0,1,.88,1.93H85.68a1.75,1.75,0,0,0-.55-1.18,1.67,1.67,0,0,0-1.2-.46,1.79,1.79,0,0,0-1.5.69,3.32,3.32,0,0,0-.53,2v.24a3.21,3.21,0,0,0,.53,2A1.77,1.77,0,0,0,83.93,234.45Z"/><path class="cls-2" d="M91.26,234.45a1.82,1.82,0,0,0,1.18-.41,1.41,1.41,0,0,0,.56-1h1.2a2.24,2.24,0,0,1-.44,1.21,2.9,2.9,0,0,1-1.07.92,3.1,3.1,0,0,1-1.43.34,3,3,0,0,1-2.4-1,4,4,0,0,1-.89-2.76v-.21a4.51,4.51,0,0,1,.39-1.92,3.08,3.08,0,0,1,1.14-1.3,3.25,3.25,0,0,1,1.75-.47,3,3,0,0,1,2.07.75,2.66,2.66,0,0,1,.88,1.93H93a1.71,1.71,0,0,0-1.75-1.64,1.77,1.77,0,0,0-1.49.69,3.32,3.32,0,0,0-.53,2v.24a3.21,3.21,0,0,0,.53,2A1.77,1.77,0,0,0,91.26,234.45Z"/><path class="cls-2" d="M95.29,231.58a4.44,4.44,0,0,1,.42-2,3.14,3.14,0,0,1,2.93-1.81,3.13,3.13,0,0,1,2.45,1.05,4,4,0,0,1,.93,2.78v.09a4.52,4.52,0,0,1-.41,1.94,3.14,3.14,0,0,1-1.19,1.33,3.25,3.25,0,0,1-1.76.48,3.12,3.12,0,0,1-2.44-1,4,4,0,0,1-.93-2.77Zm1.27.15a3.14,3.14,0,0,0,.57,2,1.93,1.93,0,0,0,3.06,0,3.42,3.42,0,0,0,.57-2.11,3.18,3.18,0,0,0-.58-2,1.92,1.92,0,0,0-3.05,0A3.42,3.42,0,0,0,96.56,231.73Z"/><path class="cls-2" d="M108.17,234.61a2.67,2.67,0,0,1-2.16.87,2.29,2.29,0,0,1-1.8-.69,2.89,2.89,0,0,1-.63-2V228h1.26v4.78c0,1.12.46,1.68,1.37,1.68a1.89,1.89,0,0,0,1.93-1.08V228h1.26v7.39h-1.2Z"/><path class="cls-2" d="M112.52,228l0,.93a2.72,2.72,0,0,1,2.22-1.07c1.56,0,2.35.88,2.36,2.65v4.88h-1.26v-4.89a1.72,1.72,0,0,0-.37-1.18,1.45,1.45,0,0,0-1.12-.39,1.82,1.82,0,0,0-1.08.33,2.23,2.23,0,0,0-.72.86v5.27h-1.27V228Z"/><path class="cls-2" d="M120.76,226.16V228h1.39v1h-1.39v4.59a1,1,0,0,0,.19.67.8.8,0,0,0,.63.22,3.54,3.54,0,0,0,.6-.08v1a3.7,3.7,0,0,1-1,.13,1.58,1.58,0,0,1-1.28-.51,2.19,2.19,0,0,1-.43-1.46v-4.58h-1.35v-1h1.35v-1.79Z"/><path class="cls-2" d="M127.93,233.38a.92.92,0,0,0-.39-.79,3.49,3.49,0,0,0-1.34-.49,6.72,6.72,0,0,1-1.53-.49,2.16,2.16,0,0,1-.83-.69,1.62,1.62,0,0,1-.27-.94,1.9,1.9,0,0,1,.77-1.54,3,3,0,0,1,2-.63,3.1,3.1,0,0,1,2,.65,2.07,2.07,0,0,1,.79,1.66h-1.28a1.12,1.12,0,0,0-.44-.89,1.64,1.64,0,0,0-1.11-.38,1.73,1.73,0,0,0-1.08.3.94.94,0,0,0-.39.79.78.78,0,0,0,.36.69,4.72,4.72,0,0,0,1.31.44,6.59,6.59,0,0,1,1.54.51,2.17,2.17,0,0,1,.87.71,1.71,1.71,0,0,1,.28,1,1.88,1.88,0,0,1-.79,1.59,3.32,3.32,0,0,1-2.06.6,3.73,3.73,0,0,1-1.57-.31,2.52,2.52,0,0,1-1.07-.88,2.11,2.11,0,0,1-.39-1.22h1.27a1.3,1.3,0,0,0,.51,1,2,2,0,0,0,1.25.37,2,2,0,0,0,1.15-.29A.9.9,0,0,0,127.93,233.38Z"/><path class="cls-2" d="M130.31,234.68a.8.8,0,0,1,.19-.55.77.77,0,0,1,.59-.21.79.79,0,0,1,.59.21.81.81,0,0,1,.2.55.76.76,0,0,1-.2.53.79.79,0,0,1-.59.21.77.77,0,0,1-.59-.21A.75.75,0,0,1,130.31,234.68Z"/><path class="cls-2" d="M364.13,194.39a2.34,2.34,0,0,1-.4,1.33,2.6,2.6,0,0,1-1.06.9,2.86,2.86,0,0,1,1.23,1,2.44,2.44,0,0,1,.46,1.46,2.61,2.61,0,0,1-.87,2.06,3.38,3.38,0,0,1-2.3.76,3.3,3.3,0,0,1-2.3-.77,2.58,2.58,0,0,1-.86-2.05,2.51,2.51,0,0,1,.44-1.46,2.71,2.71,0,0,1,1.22-1,2.66,2.66,0,0,1-1.05-.91,2.4,2.4,0,0,1-.38-1.32,2.59,2.59,0,0,1,.81-2,3.44,3.44,0,0,1,4.24,0A2.59,2.59,0,0,1,364.13,194.39Zm-1,4.64a1.82,1.82,0,0,0-.53-1.36,1.89,1.89,0,0,0-3.27,1.36,1.76,1.76,0,0,0,.5,1.33,2.25,2.25,0,0,0,2.8,0A1.78,1.78,0,0,0,363.09,199Zm-1.9-6.34a1.61,1.61,0,0,0-1.2.47,1.67,1.67,0,0,0-.47,1.25,1.7,1.7,0,0,0,.46,1.23,1.62,1.62,0,0,0,1.21.47,1.64,1.64,0,0,0,1.22-.47,1.89,1.89,0,0,0,0-2.47A1.63,1.63,0,0,0,361.19,192.69Z"/><path class="cls-2" d="M370.11,201.75h-1.28v-8.43l-2.54.93V193.1l3.62-1.36h.2Z"/><path class="cls-2" d="M373.7,193.71a2,2,0,0,1,.57-1.48,2,2,0,0,1,1.47-.58,1.93,1.93,0,0,1,1.47.58,2.09,2.09,0,0,1,.57,1.52v.48a2.07,2.07,0,0,1-3.5,1.48,2,2,0,0,1-.58-1.53Zm.94.52a1.29,1.29,0,0,0,.31.88,1.09,1.09,0,0,0,1.59,0,1.37,1.37,0,0,0,.29-.92v-.5a1.35,1.35,0,0,0-.29-.88,1,1,0,0,0-.8-.35,1,1,0,0,0-.8.35,1.33,1.33,0,0,0-.3.91ZM376,201l-.72-.45,4.86-7.78.72.45Zm2.51-1.69a2,2,0,0,1,.57-1.47,2.14,2.14,0,0,1,2.93,0,2,2,0,0,1,.58,1.52v.49a2,2,0,0,1-.57,1.47,2,2,0,0,1-1.46.58,2,2,0,0,1-2.05-2.09Zm.94.53a1.3,1.3,0,0,0,.3.89,1,1,0,0,0,.81.35,1,1,0,0,0,.78-.34,1.34,1.34,0,0,0,.3-.92v-.51a1.29,1.29,0,0,0-.3-.88,1,1,0,0,0-.79-.35,1,1,0,0,0-.79.34,1.3,1.3,0,0,0-.31.92Z"/><path class="cls-2" d="M387.33,198a4.44,4.44,0,0,1,.42-2,3.24,3.24,0,0,1,1.19-1.34,3.29,3.29,0,0,1,1.74-.47,3.13,3.13,0,0,1,2.45,1,4,4,0,0,1,.93,2.78v.09a4.35,4.35,0,0,1-.42,1.94,3.11,3.11,0,0,1-1.18,1.33,3.25,3.25,0,0,1-1.76.48,3.12,3.12,0,0,1-2.44-1,4,4,0,0,1-.93-2.77Zm1.27.15a3.14,3.14,0,0,0,.57,2,1.93,1.93,0,0,0,3.06,0,3.42,3.42,0,0,0,.56-2.11,3.18,3.18,0,0,0-.57-2,1.84,1.84,0,0,0-1.54-.76,1.81,1.81,0,0,0-1.51.75A3.42,3.42,0,0,0,388.6,198.13Z"/><path class="cls-2" d="M396.27,201.75v-6.42H395.1v-1h1.17v-.76a2.54,2.54,0,0,1,.63-1.84,2.44,2.44,0,0,1,1.8-.65,3.26,3.26,0,0,1,.87.12l-.07,1a3.64,3.64,0,0,0-.68-.07,1.2,1.2,0,0,0-.95.37,1.41,1.41,0,0,0-.34,1v.78h1.58v1h-1.58v6.42Z"/><path class="cls-2" d="M410.23,198.13a4.37,4.37,0,0,1-.78,2.72,2.47,2.47,0,0,1-2.09,1,2.57,2.57,0,0,1-2.16-1l-.07.86H404v-10.5h1.27v3.91a2.57,2.57,0,0,1,2.11-.95,2.49,2.49,0,0,1,2.11,1,4.49,4.49,0,0,1,.77,2.79ZM409,198a3.43,3.43,0,0,0-.5-2,1.65,1.65,0,0,0-1.44-.7,1.84,1.84,0,0,0-1.79,1.16v3.2a1.91,1.91,0,0,0,1.81,1.16,1.64,1.64,0,0,0,1.41-.71A3.59,3.59,0,0,0,409,198Z"/><path class="cls-2" d="M415.4,195.48a4,4,0,0,0-.62,0,1.67,1.67,0,0,0-1.69,1.06v5.25h-1.26v-7.4h1.23l0,.85a2,2,0,0,1,1.76-1,1.19,1.19,0,0,1,.56.1Z"/><path class="cls-2" d="M419.5,201.88a3.24,3.24,0,0,1-2.45-1,3.69,3.69,0,0,1-.94-2.64V198a4.48,4.48,0,0,1,.42-2,3.37,3.37,0,0,1,1.18-1.35,3,3,0,0,1,1.64-.49,2.79,2.79,0,0,1,2.24.95,4.14,4.14,0,0,1,.8,2.72v.53h-5a2.59,2.59,0,0,0,.64,1.77,2,2,0,0,0,1.55.67,2.24,2.24,0,0,0,1.14-.27,3,3,0,0,0,.81-.73l.77.6A3.09,3.09,0,0,1,419.5,201.88Zm-.15-6.63a1.7,1.7,0,0,0-1.29.56,2.66,2.66,0,0,0-.64,1.56h3.7v-.1a2.36,2.36,0,0,0-.52-1.49A1.59,1.59,0,0,0,419.35,195.25Z"/><path class="cls-2" d="M428.42,201.75a2.63,2.63,0,0,1-.18-.78,2.82,2.82,0,0,1-2.11.91,2.57,2.57,0,0,1-1.79-.62,2,2,0,0,1-.7-1.57,2.08,2.08,0,0,1,.88-1.79,4.1,4.1,0,0,1,2.47-.64h1.23v-.58a1.42,1.42,0,0,0-.4-1.06,1.59,1.59,0,0,0-1.17-.39,1.81,1.81,0,0,0-1.13.34,1,1,0,0,0-.46.83h-1.27a1.74,1.74,0,0,1,.39-1.07,2.71,2.71,0,0,1,1.07-.82,3.59,3.59,0,0,1,1.48-.3,2.9,2.9,0,0,1,2,.64,2.32,2.32,0,0,1,.75,1.76V200a4.29,4.29,0,0,0,.26,1.62v.11Zm-2.1-1a2.21,2.21,0,0,0,1.13-.31,1.85,1.85,0,0,0,.77-.8v-1.51h-1c-1.55,0-2.33.45-2.33,1.36a1.19,1.19,0,0,0,.4.93A1.53,1.53,0,0,0,426.32,200.78Z"/><path class="cls-2" d="M434.43,200.85a1.87,1.87,0,0,0,1.19-.41,1.48,1.48,0,0,0,.56-1h1.19a2.24,2.24,0,0,1-.44,1.21,2.75,2.75,0,0,1-1.07.92,3.1,3.1,0,0,1-1.43.34,3,3,0,0,1-2.4-1,4,4,0,0,1-.89-2.75v-.22a4.51,4.51,0,0,1,.39-1.92,3.08,3.08,0,0,1,1.14-1.3,3.26,3.26,0,0,1,1.76-.47,3,3,0,0,1,2.06.75,2.62,2.62,0,0,1,.88,1.93h-1.19a1.75,1.75,0,0,0-.55-1.18,1.71,1.71,0,0,0-1.2-.46,1.79,1.79,0,0,0-1.5.69,3.32,3.32,0,0,0-.53,2v.24a3.21,3.21,0,0,0,.53,2A1.77,1.77,0,0,0,434.43,200.85Z"/><path class="cls-2" d="M440.06,195.24a2.71,2.71,0,0,1,2.19-1c1.56,0,2.35.88,2.36,2.65v4.89h-1.26v-4.9a1.72,1.72,0,0,0-.37-1.18,1.45,1.45,0,0,0-1.12-.38,1.81,1.81,0,0,0-1.08.32,2.23,2.23,0,0,0-.72.86v5.28h-1.27v-10.5h1.27Z"/><path class="cls-2" d="M449.57,201.88a3.22,3.22,0,0,1-2.44-1,3.65,3.65,0,0,1-.95-2.64V198a4.48,4.48,0,0,1,.42-2,3.37,3.37,0,0,1,1.18-1.35,3,3,0,0,1,1.64-.49,2.77,2.77,0,0,1,2.24.95,4.14,4.14,0,0,1,.8,2.72v.53h-5a2.64,2.64,0,0,0,.64,1.77,2,2,0,0,0,1.55.67,2.24,2.24,0,0,0,1.14-.27,3,3,0,0,0,.81-.73l.77.6A3.09,3.09,0,0,1,449.57,201.88Zm-.15-6.63a1.71,1.71,0,0,0-1.29.56,2.72,2.72,0,0,0-.64,1.56h3.7v-.1a2.36,2.36,0,0,0-.52-1.49A1.57,1.57,0,0,0,449.42,195.25Z"/><path class="cls-2" d="M458.23,199.78a.92.92,0,0,0-.39-.79,3.63,3.63,0,0,0-1.34-.49A6.72,6.72,0,0,1,455,198a2.24,2.24,0,0,1-.83-.69,1.62,1.62,0,0,1-.27-.94,1.9,1.9,0,0,1,.77-1.54,3,3,0,0,1,2-.63,3.1,3.1,0,0,1,2,.65,2.07,2.07,0,0,1,.78,1.66h-1.27a1.12,1.12,0,0,0-.44-.89,1.64,1.64,0,0,0-1.11-.38,1.73,1.73,0,0,0-1.08.3.94.94,0,0,0-.39.79.78.78,0,0,0,.36.69,4.6,4.6,0,0,0,1.31.44,6.59,6.59,0,0,1,1.54.51,2.17,2.17,0,0,1,.87.71,1.71,1.71,0,0,1,.28,1,1.88,1.88,0,0,1-.79,1.59,3.34,3.34,0,0,1-2.06.6,3.73,3.73,0,0,1-1.57-.31,2.52,2.52,0,0,1-1.07-.88,2.11,2.11,0,0,1-.39-1.22h1.27a1.3,1.3,0,0,0,.51,1,2,2,0,0,0,1.25.37,2.06,2.06,0,0,0,1.15-.29A.89.89,0,0,0,458.23,199.78Z"/><path class="cls-2" d="M359.32,218.54a2.79,2.79,0,0,1-.18-.77,2.82,2.82,0,0,1-2.1.91,2.59,2.59,0,0,1-1.8-.62,2,2,0,0,1-.7-1.57,2.08,2.08,0,0,1,.88-1.79,4.1,4.1,0,0,1,2.47-.64h1.23v-.58a1.42,1.42,0,0,0-.4-1.06,1.59,1.59,0,0,0-1.17-.39,1.83,1.83,0,0,0-1.13.34,1,1,0,0,0-.46.83h-1.27a1.74,1.74,0,0,1,.39-1.07,2.78,2.78,0,0,1,1.07-.82,3.59,3.59,0,0,1,1.48-.3,2.9,2.9,0,0,1,2,.64,2.25,2.25,0,0,1,.75,1.76v3.41a4.29,4.29,0,0,0,.26,1.62v.1Zm-2.1-1a2.19,2.19,0,0,0,1.13-.31,1.85,1.85,0,0,0,.77-.8V215h-1c-1.55,0-2.33.45-2.33,1.36a1.19,1.19,0,0,0,.4.93A1.56,1.56,0,0,0,357.22,217.58Z"/><path class="cls-2" d="M365.94,212.28a4,4,0,0,0-.62,0,1.67,1.67,0,0,0-1.69,1v5.25h-1.26v-7.39h1.23l0,.85a2,2,0,0,1,1.76-1,1.17,1.17,0,0,1,.56.1Z"/><path class="cls-2" d="M370,218.68a3.22,3.22,0,0,1-2.44-1,3.65,3.65,0,0,1-1-2.64v-.23a4.48,4.48,0,0,1,.42-2,3.37,3.37,0,0,1,1.18-1.35,2.92,2.92,0,0,1,1.64-.49,2.77,2.77,0,0,1,2.24,1,4.14,4.14,0,0,1,.8,2.72v.53h-5a2.64,2.64,0,0,0,.64,1.77,2,2,0,0,0,1.55.67,2.24,2.24,0,0,0,1.14-.27,3,3,0,0,0,.81-.73l.77.6A3.08,3.08,0,0,1,370,218.68Zm-.15-6.63a1.71,1.71,0,0,0-1.29.56,2.72,2.72,0,0,0-.64,1.56h3.7v-.1a2.3,2.3,0,0,0-.52-1.49A1.58,1.58,0,0,0,369.89,212.05Z"/><path class="cls-2" d="M380.82,217.65a1.85,1.85,0,0,0,1.19-.41,1.48,1.48,0,0,0,.56-1h1.19a2.22,2.22,0,0,1-.43,1.21,2.86,2.86,0,0,1-1.08.92,3.08,3.08,0,0,1-1.43.34,3,3,0,0,1-2.4-1,4,4,0,0,1-.89-2.75v-.22a4.37,4.37,0,0,1,.4-1.92,3,3,0,0,1,1.13-1.3,3.26,3.26,0,0,1,1.76-.47,2.92,2.92,0,0,1,2.06.75,2.58,2.58,0,0,1,.88,1.93h-1.19a1.75,1.75,0,0,0-.55-1.18,1.69,1.69,0,0,0-1.2-.46,1.8,1.8,0,0,0-1.5.69,3.32,3.32,0,0,0-.53,2V215a3.21,3.21,0,0,0,.53,2A1.77,1.77,0,0,0,380.82,217.65Z"/><path class="cls-2" d="M389.75,218.54a2.79,2.79,0,0,1-.18-.77,2.79,2.79,0,0,1-2.1.91,2.59,2.59,0,0,1-1.8-.62,2,2,0,0,1-.7-1.57,2.1,2.1,0,0,1,.88-1.79,4.12,4.12,0,0,1,2.47-.64h1.23v-.58a1.46,1.46,0,0,0-.39-1.06A1.62,1.62,0,0,0,388,212a1.86,1.86,0,0,0-1.14.34,1,1,0,0,0-.45.83h-1.27a1.74,1.74,0,0,1,.39-1.07,2.68,2.68,0,0,1,1.06-.82,3.63,3.63,0,0,1,1.48-.3,2.92,2.92,0,0,1,2,.64,2.32,2.32,0,0,1,.75,1.76v3.41a4.29,4.29,0,0,0,.26,1.62v.1Zm-2.1-1a2.16,2.16,0,0,0,1.13-.31,1.8,1.8,0,0,0,.77-.8V215h-1c-1.55,0-2.32.45-2.32,1.36a1.18,1.18,0,0,0,.39.93A1.56,1.56,0,0,0,387.65,217.58Z"/><path class="cls-2" d="M397.37,217.81a2.69,2.69,0,0,1-2.17.87,2.29,2.29,0,0,1-1.8-.69,3,3,0,0,1-.63-2v-4.81H394v4.78c0,1.12.45,1.68,1.37,1.68a1.89,1.89,0,0,0,1.92-1.08v-5.38h1.27v7.39h-1.21Z"/><path class="cls-2" d="M404.83,216.58a.92.92,0,0,0-.39-.79,3.62,3.62,0,0,0-1.35-.49,6.62,6.62,0,0,1-1.52-.49,2.2,2.2,0,0,1-.84-.69,1.62,1.62,0,0,1-.27-.94,1.93,1.93,0,0,1,.77-1.54,3,3,0,0,1,2-.63,3.1,3.1,0,0,1,2,.65,2.07,2.07,0,0,1,.78,1.66h-1.27a1.15,1.15,0,0,0-.44-.89,1.66,1.66,0,0,0-1.11-.38,1.73,1.73,0,0,0-1.08.3.94.94,0,0,0-.39.79.78.78,0,0,0,.36.69,4.6,4.6,0,0,0,1.31.44,6.75,6.75,0,0,1,1.54.51,2.17,2.17,0,0,1,.87.71,1.71,1.71,0,0,1,.28,1,1.88,1.88,0,0,1-.79,1.59,3.34,3.34,0,0,1-2.06.6,3.7,3.7,0,0,1-1.57-.31,2.52,2.52,0,0,1-1.07-.88,2.11,2.11,0,0,1-.39-1.22h1.27a1.3,1.3,0,0,0,.51,1,1.94,1.94,0,0,0,1.25.37,2.06,2.06,0,0,0,1.15-.29A.89.89,0,0,0,404.83,216.58Z"/><path class="cls-2" d="M410.81,218.68a3.22,3.22,0,0,1-2.45-1,3.65,3.65,0,0,1-.94-2.64v-.23a4.48,4.48,0,0,1,.42-2A3.35,3.35,0,0,1,409,211.5a2.94,2.94,0,0,1,1.64-.49,2.77,2.77,0,0,1,2.24,1,4.09,4.09,0,0,1,.8,2.72v.53h-5a2.64,2.64,0,0,0,.64,1.77,2,2,0,0,0,1.56.67,2.22,2.22,0,0,0,1.13-.27,3,3,0,0,0,.81-.73l.78.6A3.09,3.09,0,0,1,410.81,218.68Zm-.16-6.63a1.67,1.67,0,0,0-1.28.56,2.66,2.66,0,0,0-.65,1.56h3.71v-.1a2.42,2.42,0,0,0-.52-1.49A1.6,1.6,0,0,0,410.65,212.05Z"/><path class="cls-2" d="M414.85,214.79a4.37,4.37,0,0,1,.8-2.74,2.74,2.74,0,0,1,4.17-.15V208h1.27v10.5h-1.16l-.06-.79a2.6,2.6,0,0,1-2.12.93,2.53,2.53,0,0,1-2.09-1.05,4.39,4.39,0,0,1-.81-2.75Zm1.26.14a3.34,3.34,0,0,0,.52,2,1.7,1.7,0,0,0,1.44.71,1.83,1.83,0,0,0,1.75-1.08v-3.4a1.84,1.84,0,0,0-1.74-1,1.69,1.69,0,0,0-1.45.72A3.67,3.67,0,0,0,416.11,214.93Z"/><path class="cls-2" d="M432.78,214.93a4.37,4.37,0,0,1-.78,2.72,2.48,2.48,0,0,1-2.09,1,2.58,2.58,0,0,1-2.17-1l-.06.85h-1.16V208h1.26V212a2.58,2.58,0,0,1,2.11-1,2.51,2.51,0,0,1,2.12,1,4.55,4.55,0,0,1,.77,2.79Zm-1.27-.14a3.36,3.36,0,0,0-.5-2,1.65,1.65,0,0,0-1.43-.71,1.85,1.85,0,0,0-1.8,1.17v3.2a1.91,1.91,0,0,0,1.81,1.16,1.65,1.65,0,0,0,1.42-.71A3.67,3.67,0,0,0,431.51,214.79Z"/><path class="cls-2" d="M436.71,216.69l1.73-5.54h1.35l-3,8.54c-.46,1.23-1.19,1.84-2.2,1.84l-.24,0-.47-.09v-1l.34,0a1.73,1.73,0,0,0,1-.25,2.06,2.06,0,0,0,.59-1l.28-.75-2.64-7.31h1.38Z"/><path class="cls-2" d="M359.06,233.38a.92.92,0,0,0-.39-.79,3.49,3.49,0,0,0-1.34-.49,6.72,6.72,0,0,1-1.53-.49,2.24,2.24,0,0,1-.83-.69,1.62,1.62,0,0,1-.27-.94,1.9,1.9,0,0,1,.77-1.54,3,3,0,0,1,2-.63,3.1,3.1,0,0,1,2,.65,2.07,2.07,0,0,1,.79,1.66H359a1.12,1.12,0,0,0-.44-.89,1.64,1.64,0,0,0-1.11-.38,1.73,1.73,0,0,0-1.08.3.94.94,0,0,0-.39.79.78.78,0,0,0,.36.69,4.72,4.72,0,0,0,1.31.44,6.43,6.43,0,0,1,1.54.51,2.17,2.17,0,0,1,.87.71,1.71,1.71,0,0,1,.28,1,1.88,1.88,0,0,1-.79,1.59,3.32,3.32,0,0,1-2.06.6,3.73,3.73,0,0,1-1.57-.31,2.59,2.59,0,0,1-1.07-.88,2.1,2.1,0,0,1-.38-1.22h1.26a1.3,1.3,0,0,0,.51,1,2,2,0,0,0,1.25.37,2.1,2.1,0,0,0,1.16-.29A.92.92,0,0,0,359.06,233.38Z"/><path class="cls-2" d="M363.69,226.16V228h1.38v1h-1.38v4.59a1.05,1.05,0,0,0,.18.67.8.8,0,0,0,.63.22,3.31,3.31,0,0,0,.6-.08v1a3.65,3.65,0,0,1-1,.13,1.59,1.59,0,0,1-1.28-.51,2.25,2.25,0,0,1-.43-1.46v-4.58h-1.34v-1h1.34v-1.79Z"/><path class="cls-2" d="M366.07,231.58a4.31,4.31,0,0,1,.43-2,3.24,3.24,0,0,1,1.19-1.34,3.29,3.29,0,0,1,1.74-.47,3.1,3.1,0,0,1,2.44,1.05,4,4,0,0,1,.94,2.78v.09a4.38,4.38,0,0,1-.42,1.94,3.11,3.11,0,0,1-1.18,1.33,3.26,3.26,0,0,1-1.77.48,3.12,3.12,0,0,1-2.43-1,4,4,0,0,1-.94-2.77Zm1.27.15a3.14,3.14,0,0,0,.58,2,1.92,1.92,0,0,0,3.05,0,3.42,3.42,0,0,0,.57-2.11,3.12,3.12,0,0,0-.58-2,1.91,1.91,0,0,0-3,0A3.42,3.42,0,0,0,367.34,231.73Z"/><path class="cls-2" d="M375.77,235.34H374.5v-10.5h1.27Z"/><path class="cls-2" d="M380.86,235.48a3.24,3.24,0,0,1-2.45-1,3.66,3.66,0,0,1-.94-2.64v-.23a4.48,4.48,0,0,1,.42-2,3.35,3.35,0,0,1,1.17-1.35,2.94,2.94,0,0,1,1.64-.49,2.77,2.77,0,0,1,2.24.95,4.09,4.09,0,0,1,.8,2.72V232h-5a2.64,2.64,0,0,0,.64,1.77,2,2,0,0,0,1.56.67,2.22,2.22,0,0,0,1.13-.27,3.15,3.15,0,0,0,.82-.73l.77.6A3.11,3.11,0,0,1,380.86,235.48Zm-.16-6.63a1.67,1.67,0,0,0-1.28.56,2.73,2.73,0,0,0-.65,1.56h3.71v-.1a2.42,2.42,0,0,0-.52-1.49A1.6,1.6,0,0,0,380.7,228.85Z"/><path class="cls-2" d="M386.4,228l0,.93a2.72,2.72,0,0,1,2.22-1.07c1.56,0,2.35.88,2.36,2.65v4.88h-1.26v-4.89a1.72,1.72,0,0,0-.37-1.18,1.44,1.44,0,0,0-1.11-.39,1.82,1.82,0,0,0-1.08.33,2.26,2.26,0,0,0-.73.86v5.27h-1.26V228Z"/><path class="cls-2" d="M402.64,231.73a4.41,4.41,0,0,1-.77,2.72,2.46,2.46,0,0,1-2.09,1,2.71,2.71,0,0,1-2.12-.85v3.56H396.4V228h1.15l.06.82a2.61,2.61,0,0,1,2.15-1,2.53,2.53,0,0,1,2.11,1,4.45,4.45,0,0,1,.77,2.79Zm-1.26-.15a3.29,3.29,0,0,0-.53-2,1.75,1.75,0,0,0-1.47-.73,1.86,1.86,0,0,0-1.72,1v3.54a1.88,1.88,0,0,0,1.74,1,1.7,1.7,0,0,0,1.44-.72A3.57,3.57,0,0,0,401.38,231.58Z"/><path class="cls-2" d="M408.82,235.34a2.46,2.46,0,0,1-.18-.77,2.82,2.82,0,0,1-2.1.91,2.58,2.58,0,0,1-1.8-.62,2,2,0,0,1-.7-1.57,2.08,2.08,0,0,1,.88-1.79,4.1,4.1,0,0,1,2.47-.64h1.23v-.58a1.42,1.42,0,0,0-.4-1.06,1.59,1.59,0,0,0-1.17-.39,1.81,1.81,0,0,0-1.13.34,1,1,0,0,0-.46.83h-1.27a1.74,1.74,0,0,1,.39-1.07,2.69,2.69,0,0,1,1.07-.82,3.59,3.59,0,0,1,1.48-.3,2.9,2.9,0,0,1,2,.64,2.25,2.25,0,0,1,.75,1.76v3.41a4.29,4.29,0,0,0,.26,1.62v.1Zm-2.1-1a2.19,2.19,0,0,0,1.13-.31,1.85,1.85,0,0,0,.77-.8v-1.51h-1c-1.55,0-2.33.45-2.33,1.36a1.19,1.19,0,0,0,.4.93A1.53,1.53,0,0,0,406.72,234.38Z"/><path class="cls-2" d="M416.17,233.38a.94.94,0,0,0-.38-.79,3.62,3.62,0,0,0-1.35-.49,6.46,6.46,0,0,1-1.52-.49,2.2,2.2,0,0,1-.84-.69,1.62,1.62,0,0,1-.27-.94,1.93,1.93,0,0,1,.77-1.54,3,3,0,0,1,2-.63,3.14,3.14,0,0,1,2,.65,2.07,2.07,0,0,1,.78,1.66H416.1a1.15,1.15,0,0,0-.44-.89,1.68,1.68,0,0,0-1.11-.38,1.73,1.73,0,0,0-1.08.3.94.94,0,0,0-.39.79.78.78,0,0,0,.36.69,4.6,4.6,0,0,0,1.31.44,6.49,6.49,0,0,1,1.53.51,2.17,2.17,0,0,1,.87.71,1.71,1.71,0,0,1,.29,1,1.89,1.89,0,0,1-.8,1.59,3.28,3.28,0,0,1-2.05.6,3.67,3.67,0,0,1-1.57-.31,2.46,2.46,0,0,1-1.07-.88,2.11,2.11,0,0,1-.39-1.22h1.26a1.37,1.37,0,0,0,.51,1,2,2,0,0,0,1.26.37,2.06,2.06,0,0,0,1.15-.29A.89.89,0,0,0,416.17,233.38Z"/><path class="cls-2" d="M423.39,233.38a.94.94,0,0,0-.38-.79,3.62,3.62,0,0,0-1.35-.49,6.72,6.72,0,0,1-1.53-.49,2.24,2.24,0,0,1-.83-.69A1.62,1.62,0,0,1,419,230a1.93,1.93,0,0,1,.77-1.54,3,3,0,0,1,2-.63,3.14,3.14,0,0,1,2,.65,2.07,2.07,0,0,1,.78,1.66h-1.27a1.15,1.15,0,0,0-.44-.89,1.68,1.68,0,0,0-1.11-.38,1.71,1.71,0,0,0-1.08.3,1,1,0,0,0-.4.79.79.79,0,0,0,.37.69,4.6,4.6,0,0,0,1.31.44,6.49,6.49,0,0,1,1.53.51,2.17,2.17,0,0,1,.87.71,1.71,1.71,0,0,1,.29,1,1.89,1.89,0,0,1-.8,1.59,3.28,3.28,0,0,1-2.05.6,3.74,3.74,0,0,1-1.58-.31,2.59,2.59,0,0,1-1.07-.88,2.17,2.17,0,0,1-.38-1.22H420a1.3,1.3,0,0,0,.51,1,2,2,0,0,0,1.26.37,2.06,2.06,0,0,0,1.15-.29A.89.89,0,0,0,423.39,233.38Z"/><path class="cls-2" d="M432.85,233.6l1.43-5.65h1.26l-2.15,7.39h-1l-1.8-5.6-1.75,5.6h-1L425.64,228h1.26l1.46,5.54,1.72-5.54h1Z"/><path class="cls-2" d="M436.49,231.58a4.31,4.31,0,0,1,.43-2,3.17,3.17,0,0,1,1.19-1.34,3.29,3.29,0,0,1,1.74-.47,3.11,3.11,0,0,1,2.44,1.05,4,4,0,0,1,.93,2.78v.09a4.38,4.38,0,0,1-.41,1.94,3.18,3.18,0,0,1-1.18,1.33,3.28,3.28,0,0,1-1.77.48,3.14,3.14,0,0,1-2.44-1,4,4,0,0,1-.93-2.77Zm1.27.15a3.14,3.14,0,0,0,.57,2,1.93,1.93,0,0,0,3.06,0,3.42,3.42,0,0,0,.57-2.11,3.12,3.12,0,0,0-.58-2,1.82,1.82,0,0,0-1.53-.76,1.8,1.8,0,0,0-1.51.75A3.36,3.36,0,0,0,437.76,231.73Z"/><path class="cls-2" d="M448.38,229.08a4,4,0,0,0-.62,0,1.67,1.67,0,0,0-1.69,1.05v5.25h-1.26V228H446l0,.85a2,2,0,0,1,1.76-1,1.17,1.17,0,0,1,.56.1Z"/><path class="cls-2" d="M449.11,231.58a4.31,4.31,0,0,1,.81-2.73,2.54,2.54,0,0,1,2.11-1,2.59,2.59,0,0,1,2.06.89v-3.86h1.26v10.5h-1.16l-.06-.79a2.59,2.59,0,0,1-2.12.93,2.53,2.53,0,0,1-2.09-1,4.39,4.39,0,0,1-.81-2.75Zm1.26.15a3.34,3.34,0,0,0,.52,2,1.7,1.7,0,0,0,1.44.71,1.85,1.85,0,0,0,1.76-1.08v-3.4a1.86,1.86,0,0,0-1.75-1.05,1.69,1.69,0,0,0-1.45.72A3.67,3.67,0,0,0,450.37,231.73Z"/><path class="cls-2" d="M461.62,233.38a.92.92,0,0,0-.39-.79,3.56,3.56,0,0,0-1.34-.49,6.72,6.72,0,0,1-1.53-.49,2.24,2.24,0,0,1-.83-.69,1.62,1.62,0,0,1-.27-.94,1.9,1.9,0,0,1,.77-1.54,3,3,0,0,1,2-.63,3.1,3.1,0,0,1,2,.65,2.07,2.07,0,0,1,.78,1.66h-1.27a1.12,1.12,0,0,0-.44-.89,1.64,1.64,0,0,0-1.11-.38,1.73,1.73,0,0,0-1.08.3.94.94,0,0,0-.39.79.78.78,0,0,0,.36.69,4.72,4.72,0,0,0,1.31.44,6.59,6.59,0,0,1,1.54.51,2.17,2.17,0,0,1,.87.71,1.71,1.71,0,0,1,.28,1,1.88,1.88,0,0,1-.79,1.59,3.32,3.32,0,0,1-2.06.6,3.73,3.73,0,0,1-1.57-.31,2.52,2.52,0,0,1-1.07-.88,2.11,2.11,0,0,1-.39-1.22h1.27a1.3,1.3,0,0,0,.51,1,2,2,0,0,0,1.25.37,2.12,2.12,0,0,0,1.16-.29A.92.92,0,0,0,461.62,233.38Z"/><path class="cls-2" d="M464.56,234.68a.8.8,0,0,1,.19-.55.77.77,0,0,1,.59-.21.79.79,0,0,1,.59.21.81.81,0,0,1,.2.55.76.76,0,0,1-.2.53.79.79,0,0,1-.59.21.77.77,0,0,1-.59-.21A.75.75,0,0,1,464.56,234.68Z"/><path class="cls-2" d="M219,197.14h-4.31v3.53h5v1.08h-6.32v-10h6.25v1.08h-4.94v3.2H219Z"/><path class="cls-2" d="M225.65,201.75a2.7,2.7,0,0,1-.17-.78,2.82,2.82,0,0,1-2.11.91,2.55,2.55,0,0,1-1.79-.62,2,2,0,0,1-.7-1.57,2.09,2.09,0,0,1,.87-1.79,4.12,4.12,0,0,1,2.47-.64h1.24v-.58a1.47,1.47,0,0,0-.4-1.06,1.62,1.62,0,0,0-1.17-.39,1.86,1.86,0,0,0-1.14.34,1,1,0,0,0-.45.83H221a1.74,1.74,0,0,1,.39-1.07,2.75,2.75,0,0,1,1.06-.82,3.63,3.63,0,0,1,1.48-.3,2.92,2.92,0,0,1,2,.64,2.32,2.32,0,0,1,.75,1.76V200a4.29,4.29,0,0,0,.26,1.62v.11Zm-2.1-1a2.16,2.16,0,0,0,1.13-.31,1.88,1.88,0,0,0,.78-.8v-1.51h-1c-1.55,0-2.32.45-2.32,1.36a1.16,1.16,0,0,0,.4.93A1.52,1.52,0,0,0,223.55,200.78Z"/><path class="cls-2" d="M233,199.78a.92.92,0,0,0-.39-.79,3.49,3.49,0,0,0-1.34-.49,6.72,6.72,0,0,1-1.53-.49,2.24,2.24,0,0,1-.83-.69,1.62,1.62,0,0,1-.27-.94,1.9,1.9,0,0,1,.77-1.54,3,3,0,0,1,2-.63,3.1,3.1,0,0,1,2,.65,2.07,2.07,0,0,1,.79,1.66h-1.28a1.12,1.12,0,0,0-.44-.89,1.64,1.64,0,0,0-1.11-.38,1.73,1.73,0,0,0-1.08.3.94.94,0,0,0-.39.79.78.78,0,0,0,.36.69,4.72,4.72,0,0,0,1.31.44,6.59,6.59,0,0,1,1.54.51,2.17,2.17,0,0,1,.87.71,1.71,1.71,0,0,1,.28,1,1.88,1.88,0,0,1-.79,1.59,3.32,3.32,0,0,1-2.06.6,3.73,3.73,0,0,1-1.57-.31,2.52,2.52,0,0,1-1.07-.88,2.11,2.11,0,0,1-.39-1.22h1.27a1.3,1.3,0,0,0,.51,1,2,2,0,0,0,1.25.37,2.1,2.1,0,0,0,1.16-.29A.9.9,0,0,0,233,199.78Z"/><path class="cls-2" d="M238.34,199.89l1.72-5.54h1.36l-3,8.54c-.46,1.23-1.19,1.84-2.19,1.84l-.24,0-.47-.09v-1l.34,0a1.7,1.7,0,0,0,1-.25,1.87,1.87,0,0,0,.59-1l.28-.76-2.64-7.31h1.39Z"/><path class="cls-2" d="M247.73,192.56v1.79h1.38v1h-1.38v4.59a1.05,1.05,0,0,0,.18.67.8.8,0,0,0,.63.22,3.31,3.31,0,0,0,.6-.08v1a3.65,3.65,0,0,1-1,.13,1.59,1.59,0,0,1-1.28-.51,2.25,2.25,0,0,1-.43-1.46v-4.58h-1.34v-1h1.34v-1.79Z"/><path class="cls-2" d="M250.11,198a4.31,4.31,0,0,1,.43-2,3.17,3.17,0,0,1,1.19-1.34,3.29,3.29,0,0,1,1.74-.47,3.1,3.1,0,0,1,2.44,1,4,4,0,0,1,.94,2.78v.09a4.35,4.35,0,0,1-.42,1.94,3.11,3.11,0,0,1-1.18,1.33,3.26,3.26,0,0,1-1.77.48,3.15,3.15,0,0,1-2.44-1,4,4,0,0,1-.93-2.77Zm1.27.15a3.08,3.08,0,0,0,.58,2,1.92,1.92,0,0,0,3,0,3.42,3.42,0,0,0,.57-2.11,3.12,3.12,0,0,0-.58-2,1.91,1.91,0,0,0-3,0A3.42,3.42,0,0,0,251.38,198.13Z"/><path class="cls-2" d="M266.2,199.78a.91.91,0,0,0-.38-.79,3.62,3.62,0,0,0-1.35-.49A6.46,6.46,0,0,1,263,198a2.2,2.2,0,0,1-.84-.69,1.62,1.62,0,0,1-.27-.94,1.93,1.93,0,0,1,.77-1.54,3,3,0,0,1,2-.63,3.1,3.1,0,0,1,2,.65,2.07,2.07,0,0,1,.78,1.66h-1.27a1.15,1.15,0,0,0-.44-.89,1.68,1.68,0,0,0-1.11-.38,1.73,1.73,0,0,0-1.08.3.94.94,0,0,0-.39.79.78.78,0,0,0,.36.69,4.6,4.6,0,0,0,1.31.44,6.49,6.49,0,0,1,1.53.51,2,2,0,0,1,.87.71,1.71,1.71,0,0,1,.29,1,1.9,1.9,0,0,1-.79,1.59,3.34,3.34,0,0,1-2.06.6,3.7,3.7,0,0,1-1.57-.31,2.46,2.46,0,0,1-1.07-.88,2.11,2.11,0,0,1-.39-1.22h1.26a1.37,1.37,0,0,0,.51,1,2,2,0,0,0,1.26.37,2.06,2.06,0,0,0,1.15-.29A.88.88,0,0,0,266.2,199.78Z"/><path class="cls-2" d="M270.83,192.56v1.79h1.38v1h-1.38v4.59a1,1,0,0,0,.19.67.8.8,0,0,0,.63.22,3.54,3.54,0,0,0,.6-.08v1a3.76,3.76,0,0,1-1,.13,1.58,1.58,0,0,1-1.28-.51,2.19,2.19,0,0,1-.43-1.46v-4.58h-1.35v-1h1.35v-1.79Z"/><path class="cls-2" d="M276.76,201.88a3.24,3.24,0,0,1-2.45-1,3.65,3.65,0,0,1-.94-2.64V198a4.48,4.48,0,0,1,.42-2A3.35,3.35,0,0,1,275,194.7a3,3,0,0,1,1.64-.49,2.77,2.77,0,0,1,2.24.95,4.09,4.09,0,0,1,.8,2.72v.53h-5a2.64,2.64,0,0,0,.64,1.77,2,2,0,0,0,1.56.67,2.22,2.22,0,0,0,1.13-.27,3.15,3.15,0,0,0,.82-.73l.77.6A3.09,3.09,0,0,1,276.76,201.88Zm-.16-6.63a1.67,1.67,0,0,0-1.28.56,2.73,2.73,0,0,0-.65,1.56h3.71v-.1a2.42,2.42,0,0,0-.52-1.49A1.6,1.6,0,0,0,276.6,195.25Z"/><path class="cls-2" d="M285.67,201.75a2.7,2.7,0,0,1-.17-.78,2.82,2.82,0,0,1-2.11.91,2.59,2.59,0,0,1-1.8-.62,2,2,0,0,1-.7-1.57,2.1,2.1,0,0,1,.88-1.79,4.12,4.12,0,0,1,2.47-.64h1.23v-.58a1.46,1.46,0,0,0-.39-1.06,1.62,1.62,0,0,0-1.17-.39,1.86,1.86,0,0,0-1.14.34,1,1,0,0,0-.45.83H281a1.76,1.76,0,0,1,.4-1.07,2.75,2.75,0,0,1,1.06-.82,3.63,3.63,0,0,1,1.48-.3,2.92,2.92,0,0,1,2,.64,2.32,2.32,0,0,1,.75,1.76V200a4.29,4.29,0,0,0,.26,1.62v.11Zm-2.1-1a2.16,2.16,0,0,0,1.13-.31,1.75,1.75,0,0,0,.77-.8v-1.51h-1c-1.55,0-2.32.45-2.32,1.36a1.16,1.16,0,0,0,.4.93A1.52,1.52,0,0,0,283.57,200.78Z"/><path class="cls-2" d="M290.1,201.75h-1.27v-10.5h1.27Z"/><path class="cls-2" d="M212.79,214.78a4.44,4.44,0,0,1,.43-2,3.24,3.24,0,0,1,1.19-1.34,3.29,3.29,0,0,1,1.74-.47,3.13,3.13,0,0,1,2.45,1.05,4,4,0,0,1,.93,2.78v.09a4.52,4.52,0,0,1-.41,1.94,3.14,3.14,0,0,1-1.19,1.33,3.25,3.25,0,0,1-1.76.48,3.12,3.12,0,0,1-2.44-1,4,4,0,0,1-.94-2.77Zm1.28.15a3.14,3.14,0,0,0,.57,2,1.93,1.93,0,0,0,3.06,0,3.48,3.48,0,0,0,.56-2.11,3.18,3.18,0,0,0-.57-2,1.84,1.84,0,0,0-1.54-.76,1.81,1.81,0,0,0-1.51.75A3.42,3.42,0,0,0,214.07,214.93Z"/><path class="cls-2" d="M224.69,212.28a4,4,0,0,0-.62,0,1.67,1.67,0,0,0-1.69,1v5.25h-1.27v-7.39h1.23l0,.85a2,2,0,0,1,1.76-1,1.19,1.19,0,0,1,.56.1Z"/><path class="cls-2" d="M232.28,217.65a1.85,1.85,0,0,0,1.19-.41,1.48,1.48,0,0,0,.56-1h1.19a2.31,2.31,0,0,1-.43,1.21,2.86,2.86,0,0,1-1.08.92,3.08,3.08,0,0,1-1.43.34,3,3,0,0,1-2.4-1,4,4,0,0,1-.89-2.75v-.22a4.37,4.37,0,0,1,.4-1.92,3,3,0,0,1,1.13-1.3,3.26,3.26,0,0,1,1.76-.47,2.92,2.92,0,0,1,2.06.75,2.62,2.62,0,0,1,.88,1.93H234a1.75,1.75,0,0,0-.55-1.18,1.69,1.69,0,0,0-1.2-.46,1.79,1.79,0,0,0-1.5.69,3.32,3.32,0,0,0-.53,2V215a3.21,3.21,0,0,0,.53,2A1.77,1.77,0,0,0,232.28,217.65Z"/><path class="cls-2" d="M240.22,212.28a4,4,0,0,0-.62,0,1.67,1.67,0,0,0-1.69,1v5.25h-1.26v-7.39h1.23l0,.85a2,2,0,0,1,1.76-1,1.19,1.19,0,0,1,.56.1Z"/><path class="cls-2" d="M245.68,218.54a2.21,2.21,0,0,1-.18-.77,2.82,2.82,0,0,1-2.11.91,2.57,2.57,0,0,1-1.79-.62,2,2,0,0,1-.7-1.57,2.08,2.08,0,0,1,.88-1.79,4.1,4.1,0,0,1,2.47-.64h1.23v-.58a1.42,1.42,0,0,0-.4-1.06,1.59,1.59,0,0,0-1.17-.39,1.81,1.81,0,0,0-1.13.34,1,1,0,0,0-.46.83h-1.27a1.74,1.74,0,0,1,.39-1.07,2.71,2.71,0,0,1,1.07-.82A3.59,3.59,0,0,1,244,211a2.9,2.9,0,0,1,2,.64,2.32,2.32,0,0,1,.75,1.76v3.41a4.29,4.29,0,0,0,.26,1.62v.1Zm-2.1-1a2.21,2.21,0,0,0,1.13-.31,1.85,1.85,0,0,0,.77-.8V215h-1c-1.55,0-2.33.45-2.33,1.36a1.16,1.16,0,0,0,.4.93A1.53,1.53,0,0,0,243.58,217.58Z"/><path class="cls-2" d="M251.69,217.65a1.82,1.82,0,0,0,1.18-.41,1.41,1.41,0,0,0,.56-1h1.2a2.24,2.24,0,0,1-.44,1.21,2.83,2.83,0,0,1-1.07.92,3.1,3.1,0,0,1-1.43.34,3,3,0,0,1-2.4-1,4,4,0,0,1-.89-2.75v-.22a4.51,4.51,0,0,1,.39-1.92,3.08,3.08,0,0,1,1.14-1.3,3.25,3.25,0,0,1,1.75-.47,3,3,0,0,1,2.07.75,2.66,2.66,0,0,1,.88,1.93h-1.2a1.7,1.7,0,0,0-.54-1.18,1.72,1.72,0,0,0-1.21-.46,1.77,1.77,0,0,0-1.49.69,3.32,3.32,0,0,0-.53,2V215a3.21,3.21,0,0,0,.53,2A1.77,1.77,0,0,0,251.69,217.65Z"/><path class="cls-2" d="M258.12,215.12l-.8.83v2.59h-1.26V208h1.26v6.36l.68-.82,2.3-2.43h1.54L259,214.24l3.22,4.3h-1.49Z"/><path class="cls-2" d="M263.18,217.88a.8.8,0,0,1,.19-.55.77.77,0,0,1,.59-.21.71.71,0,0,1,.79.76.76.76,0,0,1-.2.53.8.8,0,0,1-.59.21.77.77,0,0,1-.59-.21A.75.75,0,0,1,263.18,217.88Z"/><path class="cls-4" d="M233.3,180.52a4.13,4.13,0,1,1,4.12,4.12A4.12,4.12,0,0,1,233.3,180.52Z"/><polyline class="cls-3" points="237.42 177.1 237.42 129.19 237.42 126.11"/><path class="cls-5" d="M259.53,112.89H210.05a4.32,4.32,0,0,1-4.3-4.3V96a4.32,4.32,0,0,1,4.3-4.3H267.7"/><line class="cls-6" x1="214.36" y1="96.76" x2="214.36" y2="107.69"/><circle class="cls-7" cx="238.68" cy="69.66" r="16.09"/><rect class="cls-7" x="231.94" y="68.91" width="13.47" height="8.23" rx="1.5"/><path class="cls-8" d="M234.94,68.91v-3a3.74,3.74,0,1,1,7.48,0v3"/><rect class="cls-8" x="170.23" y="44" width="133" height="82" rx="6.74"/></g></svg>